<?xml version="1.0" encoding="UTF-8" standalone="no"?>
<svg
   xmlns:dc="http://purl.org/dc/elements/1.1/"
   xmlns:cc="http://creativecommons.org/ns#"
   xmlns:rdf="http://www.w3.org/1999/02/22-rdf-syntax-ns#"
   xmlns:svg="http://www.w3.org/2000/svg"
   xmlns="http://www.w3.org/2000/svg"
   xmlns:xlink="http://www.w3.org/1999/xlink"
   style="enable-background:new"
   version="1.1"
   id="svg2"
   viewBox="0 0 393.52451 435.04194"
   height="122.7785mm"
   width="111.06136mm">
  <defs
     id="defs4">
    <linearGradient
       id="linearGradient8263">
      <stop
         style="stop-color:#000000;stop-opacity:1;"
         offset="0"
         id="stop8251" />
      <stop
         style="stop-color:#000000;stop-opacity:0;"
         offset="1"
         id="stop8253" />
    </linearGradient>
    <filter
       id="filter6722"
       style="color-interpolation-filters:sRGB">
      <feBlend
         id="feBlend6724"
         in2="BackgroundImage"
         mode="lighten" />
    </filter>
    <linearGradient
       spreadMethod="reflect"
       gradientUnits="userSpaceOnUse"
       y2="373.03873"
       x2="422.4299"
       y1="211.40663"
       x1="203.79703"
       id="linearGradient8231"
       xlink:href="#linearGradient8263" />
  </defs>
  <metadata
     id="metadata7">
    <rdf:RDF>
      <cc:Work
         rdf:about="">
        <dc:format>image/svg+xml</dc:format>
        <dc:type
           rdf:resource="http://purl.org/dc/dcmitype/StillImage" />
        <dc:title></dc:title>
      </cc:Work>
    </rdf:RDF>
  </metadata>
  <g
     transform="translate(-179.12772,-162.29838)"
     style="display:none"
     id="layer4">
    <path
       id="path5313"
       d="m 297.73019,203.00544 c -10e-6,-4.9124 0.32642,-15.15741 -1.7773,-14.10823 -2.32085,1.1575 -1.90442,2.03333 -0.43742,4.97983 1.67188,3.35802 1.77308,1.14178 2.21472,9.1284 z"
       style="fill:#000000;fill-opacity:1;fill-rule:evenodd;stroke:#000000;stroke-width:3.43356681;stroke-linecap:butt;stroke-linejoin:miter;stroke-miterlimit:4;stroke-dasharray:none;stroke-opacity:1" />
  </g>
  <g
     transform="translate(-179.12772,-162.29838)"
     id="layer1">
    <path
       id="B"
       d="m 294.78974,198.70536 c 0,10e-6 -0.15224,3.82225 -0.15224,3.82227 -1.85337,45.79895 -5.1553,91.53962 -9.89931,137.1306 -2.56716,24.72357 -5.67689,49.6607 -16.05727,71.94943 -5.17978,11.13559 -12.17026,21.47869 -21.14725,29.76836 -8.97701,8.28969 -19.99527,14.47074 -31.89565,16.96675 -3.82385,0.80411 -7.78741,1.2004 -11.6408,0.95625 -3.85163,-0.24405 -7.57706,-1.12667 -10.94695,-2.86749 -3.37467,-1.7368 -6.31377,-4.32651 -8.22564,-7.54219 -1.91219,-3.21618 -2.75787,-7.07488 -2.14309,-10.71311 0.69728,-4.11742 3.25582,-7.8698 6.70546,-10.39067 3.44854,-2.52001 7.72637,-3.85995 12.07474,-4.17481 4.34829,-0.30908 8.66573,0.36059 12.94624,1.5635 4.2849,1.20415 8.49826,2.9321 12.64723,4.72065 15.29844,6.61169 30.56962,14.04012 46.21595,20.11699 15.6419,6.07515 31.67553,10.80347 48.47847,11.97418 25.59143,1.78028 51.61126,-5.14478 73.2127,-18.9386 21.6018,-13.79408 38.72516,-34.32006 48.92234,-57.81029 8.58394,-19.77853 12.32141,-42.30224 6.94528,-63.29642 -2.69351,-10.49521 -7.65474,-20.46737 -14.78206,-28.65838 -7.12725,-8.19093 -16.44377,-14.55247 -26.83608,-17.7675 -15.72843,-4.87202 -33.617,-2.1045 -47.1314,7.28234 a 0.8254394,0.82601427 14.590712 0 0 0.83301,1.42044 c 14.96803,-7.32464 26.7375,-20.90059 31.86574,-36.74574 5.12837,-15.84558 3.54205,-33.73303 -4.28692,-48.42193 -6.24913,-11.71981 -16.28205,-21.28192 -28.0392,-27.40153 -11.75748,-6.11979 -25.1752,-8.83546 -38.39308,-8.27918 -26.43899,1.10122 -51.26599,15.2377 -68.70494,35.02644 -12.78439,14.51164 -22.12355,32.33423 -25.21806,51.45642 0,0 -2e-5,1.2e-4 -2e-5,1.2e-4 -3.09445,19.122 0.33229,39.51176 10.86025,55.80487 7.64377,11.82372 18.78909,21.21352 31.39058,27.42863 12.60173,6.21523 26.62049,9.31711 40.63849,9.77842 28.03288,0.93399 55.48142,-8.5035 80.32386,-21.34461 22.32998,-11.54371 43.07618,-25.86705 65.23688,-37.57005 0,0 1.3e-4,-7e-5 1.3e-4,-7e-5 22.1637,-11.70457 46.33552,-20.87166 71.3333,-20.93239 0,0 1.5e-4,0 1.5e-4,0 8.0857,-0.0274 16.28999,0.94429 23.60862,4.26957 3.66106,1.65713 7.07056,3.89887 9.90668,6.73514 2.8361,2.83623 5.09058,6.27696 6.38106,10.06888 1.95878,5.77424 1.5836,12.30518 -0.99423,17.84271 -2.57769,5.53721 -7.32401,10.03035 -12.98947,12.33984 -5.28786,2.15639 -11.46658,2.37436 -16.64297,-0.0123 -2.59106,-1.18837 -4.90251,-3.00951 -6.5951,-5.30541 -1.69254,-2.29582 -2.75512,-5.06862 -2.94301,-7.91802 -0.172,-2.59268 0.38271,-5.23356 1.58778,-7.54284 1.20501,-2.30917 3.05719,-4.28051 5.29323,-5.62885 2.23594,-1.34827 4.84957,-2.06977 7.46696,-2.05777 2.61728,0.012 5.23085,0.7575 7.46519,2.1329 -2.22213,-1.39482 -4.83475,-2.16666 -7.46457,-2.20171 -2.6297,-0.035 -5.26863,0.66683 -7.53812,2.00842 -2.26939,1.34153 -4.16225,3.31861 -5.40528,5.6507 -1.24298,2.33199 -1.83214,5.01152 -1.67991,7.65614 0.16845,2.90655 1.22911,5.74432 2.93998,8.10408 1.71082,2.35969 4.05808,4.24008 6.69923,5.47694 5.28801,2.46373 11.59672,2.2616 16.99757,0.0842 5.78515,-2.33326 10.6491,-6.89818 13.3071,-12.55293 2.65785,-5.65447 3.07101,-12.33949 1.08246,-18.27384 -1.30237,-3.899 -3.59357,-7.43688 -6.47993,-10.3562 -2.88634,-2.9193 -6.35716,-5.22788 -10.08056,-6.93865 -7.4503,-3.41054 -15.77762,-4.4112 -23.92433,-4.40662 0,0 -1.6e-4,0 -1.6e-4,0 -25.19476,0.0382 -49.51824,9.25287 -71.74904,20.96691 0,0 -1.3e-4,7e-5 -1.3e-4,7e-5 -22.23398,11.71572 -42.99368,26.01948 -65.26151,37.50529 -24.78286,12.78452 -52.06061,22.11762 -79.84707,21.169 -13.89167,-0.48 -27.75223,-3.5763 -40.18548,-9.73386 -12.43344,-6.15764 -23.39733,-15.43551 -30.89545,-27.07583 -10.33262,-16.03272 -13.69454,-36.1195 -10.62061,-54.97207 0,0 2e-5,-1.2e-4 2e-5,-1.2e-4 3.0739,-18.85229 12.3116,-36.44927 24.97599,-50.79019 17.27299,-19.56592 41.78884,-33.45637 67.78112,-34.51622 12.99776,-0.52425 26.16217,2.17089 37.66812,8.18534 11.50628,6.01463 21.29516,15.38834 27.37106,26.83145 7.61608,14.33762 9.13556,31.79256 4.11795,47.2224 -5.01777,15.43028 -16.50987,28.643 -31.08521,35.75029 l 0.83301,1.42044 c 13.11042,-9.07874 30.46454,-11.73326 45.6801,-6.99648 10.0545,3.13415 19.08562,9.32223 25.99532,17.29759 6.9096,7.97525 11.72615,17.69703 14.3329,27.94531 5.22435,20.49281 1.57241,42.57601 -6.9122,62.06845 -10.0715,23.14353 -26.96222,43.34314 -48.22851,56.89598 -21.26676,13.55311 -46.86287,20.33284 -71.99537,18.5617 -16.5121,-1.16183 -32.32421,-5.82395 -47.86215,-11.87099 -15.53352,-6.04532 -30.77632,-13.47082 -46.12948,-20.11868 -4.15378,-1.80312 -8.475,-3.59174 -12.9051,-4.84881 -4.43451,-1.25833 -9.01243,-1.99461 -13.68854,-1.67416 -4.67607,0.31473 -9.38654,1.73664 -13.25635,4.53441 -3.86864,2.79697 -6.83858,7.0329 -7.67629,11.83069 -0.74143,4.23862 0.2234,8.66799 2.37484,12.33452 2.15172,3.66704 5.43818,6.57464 9.15926,8.5169 3.72583,1.93828 7.79734,2.90125 11.92467,3.17467 4.12557,0.2733 8.3231,-0.14103 12.3235,-0.97028 12.41797,-2.58063 23.8577,-8.98944 33.14761,-17.53633 9.28998,-8.54696 16.48849,-19.17741 21.80733,-30.55696 10.61684,-22.74156 13.77556,-48.10452 16.36266,-72.798 4.77222,-45.64638 8.10068,-91.44403 9.97877,-137.30145 0,2e-5 0.15244,-3.82725 0.15244,-3.82724 a 1.4096851,1.4096851 90 0 0 -2.81724,-0.10972 z"
       style="opacity:0.97000002;fill:#000000;fill-opacity:1;fill-rule:nonzero;stroke:#000000;stroke-width:2;stroke-linecap:square;stroke-linejoin:round;stroke-miterlimit:4;stroke-dasharray:none;stroke-opacity:1" />
    <path
       style="opacity:0.97000002;fill:#000000;fill-opacity:1;fill-rule:nonzero;stroke:#000500;stroke-width:2;stroke-linecap:butt;stroke-linejoin:round;stroke-miterlimit:4;stroke-dasharray:none;stroke-opacity:1"
       d="m 382.49305,326.21045 c -0.65648,7.4863 -1.30452,14.97335 -1.94414,22.46111 -0.95056,11.29122 -1.88196,22.58403 -2.79418,33.87836 -2.62149,32.25166 -5.14897,64.66957 -15.22688,95.16341 -5.05114,15.32047 -12.02611,30.07138 -21.74495,42.8513 -9.71852,12.77949 -22.27281,23.54571 -36.9084,29.97638 -3.8981,1.73131 -7.91333,3.13983 -12.04662,3.84416 -4.13198,0.70413 -8.38663,0.68652 -12.37237,-0.38301 -3.98568,-1.06946 -7.69472,-3.23088 -10.30349,-6.35385 -2.6092,-3.12337 -4.05693,-7.2457 -3.66149,-11.24574 0.38392,-3.89008 2.49087,-7.5677 5.50557,-10.20097 3.01367,-2.63228 6.87374,-4.25832 10.89325,-4.97263 4.02077,-0.70274 8.10424,-0.52391 12.20822,0.12172 4.10799,0.64625 8.20394,1.75429 12.25893,2.89357 41.19264,11.6716 81.6964,25.65139 122.1115,39.86752 5.02673,1.74674 10.13431,3.52546 15.43714,4.50524 5.30903,0.98093 10.89113,1.14261 16.14214,-0.34202 5.25166,-1.48477 10.15098,-4.73677 12.93528,-9.48336 1.38167,-2.37826 2.20908,-5.08963 2.28882,-7.84083 0.0797,-2.75132 -0.60019,-5.53162 -2.02619,-7.88387 -1.10918,-1.84218 -2.63826,-3.36648 -4.39601,-4.56804 -1.75766,-1.20148 -3.74886,-2.08375 -5.79154,-2.64101 -4.07765,-1.11238 -8.37336,-1.04181 -12.52636,-0.59602 -16.65459,1.71788 -32.12401,9.31336 -46.31796,18.09092 -14.19953,8.78101 -27.58519,18.88991 -42.39381,26.53703 -22.36096,11.53386 -47.73719,17.17307 -72.89057,16.19184 -25.15318,-0.98123 -50.02556,-8.5807 -71.4406,-21.83418 21.3905,13.29266 46.25959,20.94437 71.43506,21.97276 25.17527,1.02838 50.59816,-4.56901 73.02305,-16.08378 14.85777,-7.62042 28.28349,-17.70142 42.48518,-26.42946 14.20732,-8.73149 29.6172,-16.23359 46.15581,-17.89321 4.13498,-0.39748 8.33668,-0.41195 12.28403,0.71212 1.96979,0.56094 3.87543,1.43254 5.54382,2.6004 1.66831,1.1678 3.09449,2.62823 4.11468,4.36603 1.29848,2.22828 1.89062,4.84769 1.77122,7.4222 -0.11939,2.57462 -0.9391,5.10429 -2.27331,7.31168 -2.64738,4.42467 -7.29754,7.47452 -12.3151,8.84618 -5.0182,1.37188 -10.38556,1.18244 -15.54981,0.18185 -5.17048,-1.00179 -10.1614,-2.7857 -15.18795,-4.58139 -40.39914,-14.25952 -80.93021,-28.29833 -122.16394,-40.02966 -4.04559,-1.16064 -8.22366,-2.31746 -12.43931,-3.00437 -4.21969,-0.68757 -8.5094,-0.91041 -12.78778,-0.18684 -4.27966,0.71211 -8.49629,2.40923 -11.85675,5.27982 -3.35935,2.86972 -5.81313,6.96904 -6.30583,11.45417 -0.50652,4.61717 1.11173,9.31776 4.01948,12.8753 2.90805,3.55801 7.02084,5.99183 11.3908,7.21467 4.36988,1.22286 8.98479,1.27677 13.40197,0.57252 4.41592,-0.70403 8.65802,-2.15067 12.6974,-3.89334 15.13489,-6.59874 28.06749,-17.64918 38.05736,-30.7082 9.98954,-13.05858 17.13576,-28.09 22.30425,-43.61764 10.25223,-30.87304 12.84122,-63.6511 15.50314,-95.82999 0.93963,-11.28862 1.89844,-22.57562 2.87639,-33.86094 0.63942,-7.48542 1.28726,-14.97012 1.94353,-22.45409 z"
       id="T" />
    <path
       id="path6682"
       d="m 385.19242,342.09844 c 1.06873,-12.02441 14.98602,-19.352 20.52121,-22.77711 -9.67709,0.64934 -22.53453,7.81645 -22.53453,7.81645 z"
       style="fill:#000000;fill-opacity:1;fill-rule:nonzero;stroke:none;stroke-width:1px;stroke-linecap:butt;stroke-linejoin:miter;stroke-opacity:1" />
    <path
       id="path4634"
       d="m 244.22497,306.96944 c -22.10993,-32.93503 -11.6167,-67.7449 -5.12922,-81.36742 8.556,-17.96602 21.34563,-34.00339 47.38005,-49.50087 -17.22133,10.42721 -34.89095,25.49097 -42.9175,55.98539 -8.02655,30.49442 -8.92439,57.71453 0.66667,74.8829 z"
       style="display:inline;fill:#000000;fill-opacity:1;fill-rule:nonzero;stroke:none;stroke-width:1px;stroke-linecap:butt;stroke-linejoin:miter;stroke-opacity:1" />
    <path
       style="display:inline;fill:#000000;fill-opacity:1;fill-rule:nonzero;stroke:none;stroke-width:1px;stroke-linecap:butt;stroke-linejoin:miter;stroke-opacity:1"
       d="m 376.00788,449.88261 c 42.06422,-17.37071 69.32624,-51.32726 75.54021,-88.66449 6.21398,-37.33722 -13.17207,-67.3435 -29.77365,-76.91054 7.51622,4.62155 26.64635,25.35497 18.2171,74.17032 -8.42925,48.81535 -40.34598,78.12343 -63.98366,91.40471 z"
       id="path4641" />
    <path
       id="path4643"
       d="m 371.54382,276.37863 c 21.08635,-15.99477 24.49836,-39.33259 24.66569,-52.14986 0.16733,-12.81727 -11.32719,-36.34931 -30.4619,-48.59652 10.78555,6.86103 22.45785,24.58315 24.46267,40.94548 2.00481,16.36233 -4.54255,47.38259 -18.66646,59.8009 z"
       style="display:inline;fill:#000000;fill-opacity:1;fill-rule:nonzero;stroke:none;stroke-width:1px;stroke-linecap:butt;stroke-linejoin:miter;stroke-opacity:1" />
    <path
       id="path5297"
       d="m 304.60977,343.10103 c 51.77194,3.48992 83.77671,-14.27461 98.22149,-22.09572 14.44477,-7.82112 76.19687,-49.96396 104.07969,-54.96128 -38.14231,7.09969 -78.30376,35.34711 -92.81454,44.18195 -14.51077,8.83485 -69.64793,37.95601 -109.48664,32.87505 z"
       style="display:inline;fill:#000000;fill-opacity:1;fill-rule:nonzero;stroke:none;stroke-width:1px;stroke-linecap:butt;stroke-linejoin:miter;stroke-opacity:1" />
  </g>
  <g
     transform="translate(-179.12772,-162.29838)"
     style="display:none;opacity:0.5;filter:url(#filter6722)"
     id="layer5">
    <rect
       y="152.06345"
       x="172.56377"
       height="456.00558"
       width="413.8407"
       id="rect6708"
       style="opacity:0.52999998;fill:url(#linearGradient8231);fill-opacity:1;fill-rule:nonzero;stroke:none;stroke-width:2;stroke-linecap:square;stroke-linejoin:round;stroke-miterlimit:4;stroke-dasharray:none;stroke-opacity:1" />
  </g>
  <g
     transform="translate(-179.12772,-162.29838)"
     style="display:none"
     id="layer2">
    <rect
       style="fill:none;fill-opacity:1;fill-rule:nonzero;stroke:#000000;stroke-width:5;stroke-linecap:square;stroke-miterlimit:4;stroke-dasharray:none;stroke-opacity:1"
       id="rect4240"
       width="112.89709"
       height="619.59003"
       x="-893.3797"
       y="220.29373"
       transform="matrix(-0.98222234,0.18772129,0.18772129,0.98222234,0,0)" />
    <rect
       transform="matrix(0.98222234,0.18772129,-0.18772129,0.98222234,0,0)"
       y="148.12685"
       x="-110.18513"
       height="619.59003"
       width="112.89709"
       id="rect4531"
       style="fill:none;fill-opacity:1;fill-rule:nonzero;stroke:#000000;stroke-width:5;stroke-linecap:square;stroke-miterlimit:4;stroke-dasharray:none;stroke-opacity:1" />
    <rect
       transform="matrix(-0.98222234,0.18772129,0.18772129,0.98222234,0,0)"
       y="220.59361"
       x="135.91063"
       height="619.59003"
       width="112.89709"
       id="rect4533"
       style="fill:none;fill-opacity:1;fill-rule:nonzero;stroke:#000000;stroke-width:5;stroke-linecap:square;stroke-miterlimit:4;stroke-dasharray:none;stroke-opacity:1" />
    <rect
       style="fill:none;fill-opacity:1;fill-rule:nonzero;stroke:#000000;stroke-width:5;stroke-linecap:square;stroke-miterlimit:4;stroke-dasharray:none;stroke-opacity:1"
       id="rect4535"
       width="112.89709"
       height="619.59003"
       x="1097.7004"
       y="132.58516"
       transform="matrix(0.98222234,0.18772129,-0.18772129,0.98222234,0,0)" />
  </g>
  <path
     id="path8357"
     d="m 192.04278,116.28606 c -8.78696,4.68606 -13.11751,7.63185 -19.02047,12.3735"
     style="fill:none;fill-opacity:0.44230772;fill-rule:evenodd;stroke:#000000;stroke-width:3.79999995;stroke-linecap:round;stroke-linejoin:round;stroke-miterlimit:4;stroke-dasharray:none;stroke-opacity:1" />
</svg>
